<?xml version="1.0" standalone="no"?>
<!DOCTYPE svg PUBLIC "-//W3C//DTD SVG 20010904//EN"
 "http://www.w3.org/TR/2001/REC-SVG-20010904/DTD/svg10.dtd">
<svg version="1.0" xmlns="http://www.w3.org/2000/svg"
 width="268.000000pt" height="268.000000pt" viewBox="0 0 268.000000 268.000000"
 preserveAspectRatio="xMidYMid meet">
<metadata>
Created by potrace 1.11, written by Peter Selinger 2001-2013
</metadata>
<g transform="translate(0.000000,268.000000) scale(0.100000,-0.100000)"
fill="#000000" stroke="none">
<path d="M1198 2674 c-3 -2 -22 -6 -44 -8 -58 -6 -225 -46 -256 -62 -15 -8
-29 -14 -30 -13 -6 2 -67 -24 -128 -54 -56 -27 -94 -50 -184 -109 -43 -29
-165 -140 -216 -198 -146 -164 -266 -394 -305 -585 -26 -126 -30 -167 -30
-300 1 -184 17 -292 63 -425 3 -8 6 -17 6 -20 16 -63 101 -229 170 -330 66
-95 267 -300 295 -300 5 0 11 -4 13 -8 16 -40 328 -194 438 -216 14 -3 43 -10
65 -15 73 -19 149 -25 285 -25 225 0 334 23 553 114 42 17 77 36 77 41 0 5 4
8 9 7 24 -7 204 125 301 222 91 91 230 271 230 299 0 5 7 14 15 21 8 7 13 15
10 19 -2 4 4 21 14 37 15 24 86 213 90 237 1 4 1 8 2 10 1 5 7 34 13 67 3 19
9 53 13 75 9 52 10 295 1 360 -34 248 -135 483 -289 670 -41 50 -173 185 -182
185 -4 0 -19 12 -32 26 -14 15 -25 24 -25 20 0 -4 -7 -1 -15 7 -8 8 -31 25
-52 38 -21 13 -41 28 -45 33 -5 7 -8 7 -8 1 0 -6 -3 -6 -8 0 -7 11 -147 85
-157 84 -3 0 -31 9 -63 21 -31 12 -64 24 -72 25 -8 2 -15 4 -15 5 0 2 -100 24
-170 36 -36 7 -332 14 -337 8z"/>
</g>
</svg>
